<?xml version="1.0" encoding="UTF-8" standalone="no"?>
<!DOCTYPE svg PUBLIC "-//W3C//DTD SVG 1.1//EN"
 "http://www.w3.org/Graphics/SVG/1.1/DTD/svg11.dtd">
<!-- Generated by graphviz version 2.40.1 (20161225.0304)
 -->
<!-- Title: app_test Pages: 1 -->
<svg width="746pt" height="249pt"
 viewBox="0.00 0.00 746.00 249.00" xmlns="http://www.w3.org/2000/svg" xmlns:xlink="http://www.w3.org/1999/xlink">
<g id="graph0" class="graph" transform="scale(1 1) rotate(0) translate(4 245)">
<title>app_test</title>
<polygon fill="#ffffff" stroke="transparent" points="-4,4 -4,-245 742,-245 742,4 -4,4"/>
<!-- ar_internal_metadata -->
<g id="node1" class="node">
<title>ar_internal_metadata</title>
<polygon fill="#efefef" stroke="transparent" points="43.5,-162.5 43.5,-197.5 324.5,-197.5 324.5,-162.5 43.5,-162.5"/>
<polygon fill="none" stroke="#000000" points="43.5,-162.5 43.5,-197.5 324.5,-197.5 324.5,-162.5 43.5,-162.5"/>
<text text-anchor="start" x="50.3501" y="-175.3" font-family="Arial Bold" font-size="18.00" fill="#000000">ar_internal_metadata</text>
<text text-anchor="start" x="220.3961" y="-175.3" font-family="Arial" font-size="14.00" fill="#000000"> </text>
<text text-anchor="start" x="224.2867" y="-175.3" font-family="Arial" font-size="14.00" fill="#666666">[BASE TABLE]</text>
<polygon fill="none" stroke="#000000" points="43.5,-132.5 43.5,-162.5 324.5,-162.5 324.5,-132.5 43.5,-132.5"/>
<text text-anchor="start" x="50.5" y="-143.9" font-family="Arial" font-size="14.00" fill="#000000">key </text>
<text text-anchor="start" x="76.1732" y="-143.9" font-family="Arial" font-size="14.00" fill="#666666">[varchar(255)]</text>
<polygon fill="none" stroke="#000000" points="43.5,-102.5 43.5,-132.5 324.5,-132.5 324.5,-102.5 43.5,-102.5"/>
<text text-anchor="start" x="50.5" y="-113.9" font-family="Arial" font-size="14.00" fill="#000000">value </text>
<text text-anchor="start" x="87.845" y="-113.9" font-family="Arial" font-size="14.00" fill="#666666">[varchar(255)]</text>
<polygon fill="none" stroke="#000000" points="43.5,-72.5 43.5,-102.5 324.5,-102.5 324.5,-72.5 43.5,-72.5"/>
<text text-anchor="start" x="50.5" y="-83.9" font-family="Arial" font-size="14.00" fill="#000000">created_at </text>
<text text-anchor="start" x="120.528" y="-83.9" font-family="Arial" font-size="14.00" fill="#666666">[datetime(6)]</text>
<polygon fill="none" stroke="#000000" points="43.5,-42.5 43.5,-72.5 324.5,-72.5 324.5,-42.5 43.5,-42.5"/>
<text text-anchor="start" x="50.5" y="-53.9" font-family="Arial" font-size="14.00" fill="#000000">updated_at </text>
<text text-anchor="start" x="124.4326" y="-53.9" font-family="Arial" font-size="14.00" fill="#666666">[datetime(6)]</text>
</g>
<!-- schema_migrations -->
<g id="node2" class="node">
<title>schema_migrations</title>
<polygon fill="#efefef" stroke="transparent" points="428.5,-117.5 428.5,-152.5 695.5,-152.5 695.5,-117.5 428.5,-117.5"/>
<polygon fill="none" stroke="#000000" points="428.5,-117.5 428.5,-152.5 695.5,-152.5 695.5,-117.5 428.5,-117.5"/>
<text text-anchor="start" x="435.3647" y="-130.3" font-family="Arial Bold" font-size="18.00" fill="#000000">schema_migrations</text>
<text text-anchor="start" x="591.3815" y="-130.3" font-family="Arial" font-size="14.00" fill="#000000"> </text>
<text text-anchor="start" x="595.2721" y="-130.3" font-family="Arial" font-size="14.00" fill="#666666">[BASE TABLE]</text>
<polygon fill="none" stroke="#000000" points="428.5,-87.5 428.5,-117.5 695.5,-117.5 695.5,-87.5 428.5,-87.5"/>
<text text-anchor="start" x="435.5" y="-98.9" font-family="Arial" font-size="14.00" fill="#000000">version </text>
<text text-anchor="start" x="484.5056" y="-98.9" font-family="Arial" font-size="14.00" fill="#666666">[varchar(255)]</text>
</g>
</g>
</svg>
